<mxfile host="app.diagrams.net" modified="2023-10-24T13:21:57.178Z" agent="Mozilla/5.0 (Windows NT 10.0; Win64; x64) AppleWebKit/537.36 (KHTML, like Gecko) Chrome/118.0.0.0 Safari/537.36" version="22.0.6" etag="hL143dsmv8ewZHH2ivz5" type="github">
  <diagram name="Page-1" id="aoNqHYXIiLPrUP54kB_e">
    <mxGraphModel>
      <root>
        <mxCell id="0" />
        <mxCell id="1" parent="0" />
      </root>
    </mxGraphModel>
  </diagram>
</mxfile>
